<svg width="320" height="293" xmlns="http://www.w3.org/2000/svg" xmlns:xlink="http://www.w3.org/1999/xlink" overflow="hidden"><defs><clipPath id="clip0"><path d="M838 261 1158 261 1158 554 838 554Z" fill-rule="evenodd" clip-rule="evenodd"/></clipPath></defs><g clip-path="url(#clip0)" transform="translate(-838 -261)"><path d="M1046 321 1046 545" stroke="#000000" stroke-width="15.6667" stroke-linecap="round" stroke-miterlimit="8" fill="none" fill-rule="evenodd"/><path d="M0 0 115.948 191.778" stroke="#000000" stroke-width="15.6667" stroke-linecap="round" stroke-miterlimit="8" fill="none" fill-rule="evenodd" transform="matrix(-1 -8.74228e-08 -8.74228e-08 1 1044.95 319)"/><path d="M0 0 111.888 0.000104987" stroke="#000000" stroke-width="15.6667" stroke-linecap="round" stroke-miterlimit="8" fill="none" fill-rule="evenodd" transform="matrix(-1 -8.74228e-08 -8.74228e-08 1 1045.89 546)"/><path d="M0 0 0.000104987 222.992" stroke="#000000" stroke-width="15.6667" stroke-linecap="round" stroke-miterlimit="8" fill="none" fill-rule="evenodd" transform="matrix(1 0 0 -1 974 521.992)"/><path d="M860.295 300.266C846.302 288.926 860.938 279.11 903.85 274.385 952.791 272.071 1058.51 263.931 1106.17 276.286 1143.71 292.062 1149.68 328.551 1148.73 349.822 1145.5 372.924 1137.02 408.757 1097.44 420.744 1062.84 433.958 952.103 432.102 922.892 435" stroke="#000000" stroke-width="15.6667" stroke-linecap="round" stroke-linejoin="round" stroke-miterlimit="10" fill="none" fill-rule="evenodd"/><path d="M1138 527C1138 524.791 1139.57 523 1141.5 523 1143.43 523 1145 524.791 1145 527 1145 529.209 1143.43 531 1141.5 531 1139.57 531 1138 529.209 1138 527Z" stroke="#000000" stroke-width="15.6667" stroke-miterlimit="8" fill-rule="evenodd"/></g></svg>