<svg width="319" height="294" xmlns="http://www.w3.org/2000/svg" xmlns:xlink="http://www.w3.org/1999/xlink" overflow="hidden"><defs><clipPath id="clip0"><path d="M435 256 754 256 754 550 435 550Z" fill-rule="evenodd" clip-rule="evenodd"/></clipPath></defs><g clip-path="url(#clip0)" transform="translate(-435 -256)"><path d="M642 315 642 539" stroke="#013171" stroke-width="15.6667" stroke-linecap="round" stroke-miterlimit="8" fill="none" fill-rule="evenodd"/><path d="M0 0 115.948 191.778" stroke="#013171" stroke-width="15.6667" stroke-linecap="round" stroke-miterlimit="8" fill="none" fill-rule="evenodd" transform="matrix(-1 -8.74228e-08 -8.74228e-08 1 641.948 315)"/><path d="M0 0 111.888 0.000104987" stroke="#013171" stroke-width="15.6667" stroke-linecap="round" stroke-miterlimit="8" fill="none" fill-rule="evenodd" transform="matrix(-1 -8.74228e-08 -8.74228e-08 1 641.888 541)"/><path d="M0 0 0.000104987 222.992" stroke="#013171" stroke-width="15.6667" stroke-linecap="round" stroke-miterlimit="8" fill="none" fill-rule="evenodd" transform="matrix(1 0 0 -1 571 516.992)"/><path d="M457.295 295.266C443.302 283.926 457.938 274.11 500.85 269.385 549.791 267.071 655.505 258.931 703.168 271.286 740.714 287.062 746.682 323.551 745.733 344.822 742.504 367.924 734.018 403.757 694.441 415.744 659.843 428.958 549.103 427.102 519.892 430" stroke="#013171" stroke-width="15.6667" stroke-linecap="round" stroke-linejoin="round" stroke-miterlimit="10" fill="none" fill-rule="evenodd"/><path d="M734 522C734 519.791 735.791 518 738 518 740.209 518 742 519.791 742 522 742 524.209 740.209 526 738 526 735.791 526 734 524.209 734 522Z" stroke="#013171" stroke-width="15.6667" stroke-miterlimit="8" fill="#013171" fill-rule="evenodd"/></g></svg>